<svg xmlns="http://www.w3.org/2000/svg" viewBox="0 0 1715.888 1483.036" width="1715.888" height="1483.036">
<g transform="translate(341.251,63.307) scale(0.521648)"><g id="icon"><g transform="translate(0.000000,1968.000000) scale(0.100000,-0.100000)"><path d="M9765 19350 c-69 -15 -233 -78 -333 -128 -156 -78 -582 -297 -642
-329 -30 -17 -109 -58 -175 -93 -66 -35 -183 -97 -260 -138 -77 -42 -165 -89
-195 -105 -30 -16 -84 -46 -120 -67 -36 -20 -99 -55 -140 -77 -200 -107 -351
-192 -900 -508 -217 -125 -433 -248 -480 -273 -47 -25 -119 -66 -160 -90 -100
-59 -104 -62 -340 -199 -113 -66 -293 -173 -400 -239 -107 -66 -238 -145 -290
-176 -430 -253 -1115 -666 -1250 -753 -19 -12 -75 -49 -125 -80 -49 -32 -128
-82 -175 -112 -47 -30 -129 -83 -182 -117 -357 -225 -529 -338 -898 -587 -348
-236 -635 -447 -727 -536 -107 -105 -158 -203 -187 -358 -16 -91 -49 -414 -61
-600 -3 -55 -12 -179 -20 -275 -8 -96 -19 -269 -25 -385 -6 -115 -14 -280 -19
-365 -6 -85 -13 -265 -16 -400 -3 -135 -13 -414 -21 -620 -25 -662 -36 -1934
-24 -2785 6 -423 15 -862 20 -975 5 -113 14 -347 20 -520 9 -282 17 -462 50
-1075 30 -570 74 -1064 106 -1202 23 -101 91 -209 187 -299 77 -72 295 -240
452 -349 39 -27 99 -69 135 -95 116 -83 696 -474 830 -559 47 -30 115 -74 153
-98 37 -24 100 -64 140 -89 131 -84 171 -110 277 -179 149 -96 246 -159 400
-260 198 -128 188 -122 410 -261 113 -70 304 -187 425 -259 121 -73 303 -183
405 -245 102 -62 245 -149 318 -194 73 -45 183 -112 245 -149 104 -63 887
-517 1030 -597 35 -19 74 -43 87 -52 14 -10 28 -18 32 -18 4 0 58 -30 120 -66
62 -37 142 -84 178 -104 36 -20 112 -64 170 -97 122 -70 620 -343 625 -343 2
0 50 -26 107 -58 57 -32 141 -79 188 -104 47 -25 112 -61 145 -78 33 -18 92
-50 130 -70 39 -21 120 -64 180 -97 347 -186 509 -252 677 -274 80 -10 104 -9
171 5 149 31 245 72 612 266 55 29 156 82 225 118 69 35 154 80 190 99 227
122 460 250 625 343 105 59 246 138 315 175 126 69 329 183 495 280 50 29 143
83 208 121 65 38 133 78 151 89 18 11 111 65 205 120 95 55 184 107 199 116
15 9 44 26 65 38 74 42 108 61 140 80 99 57 174 102 277 166 63 40 158 97 210
128 52 30 167 99 255 153 88 53 239 145 335 202 96 58 238 144 315 192 77 48
205 127 285 175 80 48 197 121 260 163 106 69 166 108 260 167 72 46 221 143
415 270 110 73 249 163 308 201 127 81 587 384 667 440 101 70 311 219 359
254 26 19 82 60 123 90 177 128 307 232 374 298 169 166 199 328 249 1312 41
832 58 1263 80 2040 17 627 20 2213 5 2720 -32 1060 -42 1346 -60 1720 -11
228 -22 447 -25 485 -3 39 -12 198 -20 355 -9 157 -17 292 -20 300 -2 8 -9 94
-15 190 -13 212 -43 408 -75 489 -60 154 -143 235 -460 448 -126 85 -301 202
-387 261 -86 59 -212 143 -280 186 -68 44 -199 129 -293 191 -93 61 -204 133
-245 159 -71 45 -162 104 -289 188 -31 21 -72 47 -91 58 -19 12 -78 47 -130
80 -52 32 -122 75 -155 95 -33 20 -90 55 -128 78 -96 60 -825 497 -1117 670
-74 44 -183 109 -243 144 -59 35 -187 111 -285 167 -194 113 -479 281 -556
327 -27 17 -78 46 -115 65 -36 20 -110 61 -164 93 -117 68 -123 71 -407 231
-124 70 -307 171 -408 226 -101 54 -272 148 -380 208 -108 59 -231 126 -272
148 -41 22 -79 44 -85 48 -24 18 -541 283 -1002 514 -230 115 -296 143 -443
192 -83 27 -235 40 -305 24z m290 -1607 c22 -8 51 -18 65 -22 53 -17 360 -167
495 -241 28 -15 106 -58 175 -95 69 -37 154 -85 189 -107 34 -21 64 -38 66
-38 2 0 47 -25 100 -55 54 -30 101 -55 105 -55 4 0 18 -8 31 -18 13 -11 83
-49 154 -87 246 -128 364 -194 795 -447 80 -47 162 -95 183 -107 21 -12 82
-48 135 -80 53 -32 126 -74 162 -93 36 -19 128 -72 205 -118 77 -45 156 -92
175 -103 19 -11 47 -27 62 -36 14 -9 86 -51 160 -94 73 -42 174 -102 223 -133
50 -31 149 -89 220 -131 72 -41 146 -85 165 -97 19 -13 99 -63 178 -112 78
-49 172 -108 210 -131 37 -24 144 -89 237 -144 238 -143 491 -296 550 -334 28
-18 102 -65 165 -105 63 -40 142 -91 175 -113 81 -55 387 -261 627 -423 422
-284 498 -353 548 -500 17 -49 50 -329 65 -559 3 -49 13 -169 20 -265 8 -96
19 -265 25 -375 5 -110 17 -319 25 -465 69 -1257 76 -2740 20 -4205 -9 -214
-20 -457 -25 -540 -5 -82 -17 -283 -25 -445 -8 -162 -17 -311 -20 -330 -3 -19
-12 -141 -21 -270 -22 -341 -37 -450 -69 -504 -40 -68 -124 -145 -320 -292
-85 -64 -345 -243 -510 -351 -57 -37 -191 -128 -406 -275 -52 -36 -142 -95
-200 -130 -57 -36 -159 -100 -226 -144 -67 -43 -145 -92 -173 -109 -28 -16
-205 -126 -393 -244 -367 -229 -548 -342 -655 -407 -37 -23 -141 -87 -232
-142 -91 -56 -209 -128 -263 -159 -54 -32 -111 -65 -125 -74 -64 -38 -96 -58
-202 -119 -61 -36 -119 -70 -128 -75 -9 -6 -35 -21 -57 -33 -22 -12 -56 -32
-77 -44 -20 -13 -83 -50 -140 -82 -56 -33 -227 -134 -378 -224 -267 -159 -409
-240 -690 -392 -74 -40 -152 -83 -172 -96 -21 -13 -40 -24 -42 -24 -3 0 -67
-35 -143 -78 -76 -43 -169 -96 -208 -117 -38 -21 -88 -48 -110 -61 -178 -102
-602 -313 -695 -346 -115 -40 -207 -30 -360 39 -112 50 -504 251 -642 329 -43
24 -79 44 -82 44 -2 0 -39 20 -82 44 -219 121 -466 257 -524 288 -153 83 -373
205 -470 261 -242 139 -623 362 -768 448 -44 26 -103 60 -162 92 -30 17 -66
38 -80 47 -14 9 -29 19 -35 21 -9 4 -149 87 -200 119 -13 8 -69 42 -126 75
-56 33 -118 70 -138 82 -20 12 -49 30 -66 39 -16 9 -52 31 -80 49 -105 66
-394 245 -495 305 -58 35 -199 122 -315 195 -115 73 -286 179 -380 235 -93 57
-255 160 -360 228 -104 69 -212 139 -240 157 -82 53 -429 280 -585 383 -259
171 -530 375 -593 446 -81 91 -99 158 -126 481 -102 1199 -150 2634 -137 4135
9 1068 43 2139 87 2680 5 69 16 224 24 345 22 339 47 429 149 529 46 47 176
147 306 236 28 19 66 46 85 60 19 14 55 39 82 56 26 17 227 150 446 295 429
285 536 354 667 435 47 28 216 131 375 229 337 207 825 503 1075 653 96 57
191 115 210 127 43 27 134 82 176 106 17 9 42 23 55 31 13 7 31 18 39 24 8 6
45 28 82 48 37 19 86 47 108 61 22 14 42 25 45 25 5 0 96 52 230 130 399 235
749 434 945 539 85 46 202 110 260 141 58 32 137 75 175 95 39 21 127 71 197
111 70 41 130 74 133 74 3 0 83 44 178 99 388 222 583 317 699 341 54 11 160
3 213 -17z m5760 -3313 c3 -5 1 -10 -4 -10 -6 0 -11 5 -11 10 0 6 2 10 4 10 3
0 8 -4 11 -10z M9775 16191 c-54 -15 -311 -137 -415 -196 -51 -30 -91 -52
-230 -127 -30 -17 -85 -48 -122 -69 -36 -22 -69 -39 -71 -39 -3 0 -53 -27
-111 -60 -58 -33 -108 -60 -110 -60 -2 0 -33 -16 -68 -36 -34 -20 -101 -56
-148 -81 -47 -25 -92 -52 -101 -59 -8 -8 -19 -14 -23 -14 -10 0 -207 -114
-486 -280 -80 -48 -255 -151 -390 -230 -306 -179 -427 -251 -510 -303 -36 -22
-94 -58 -130 -80 -71 -44 -155 -97 -210 -132 -19 -12 -59 -37 -89 -56 -30 -19
-103 -65 -163 -104 -214 -140 -327 -212 -553 -353 -343 -215 -677 -438 -848
-565 -84 -62 -199 -146 -256 -187 -156 -111 -202 -157 -240 -240 -42 -90 -48
-143 -91 -725 -41 -573 -72 -2101 -59 -2970 17 -1083 44 -1665 115 -2445 25
-273 37 -320 103 -404 67 -84 320 -260 991 -691 375 -240 471 -302 591 -380
217 -140 266 -171 349 -220 91 -54 158 -96 301 -187 49 -32 91 -58 93 -58 2 0
40 -24 85 -53 102 -65 132 -84 311 -189 80 -47 289 -170 465 -273 467 -275
592 -346 910 -518 61 -33 139 -75 175 -95 36 -19 99 -53 140 -75 41 -22 105
-57 142 -78 36 -22 69 -39 71 -39 3 0 51 -26 108 -58 163 -91 387 -199 469
-227 101 -34 198 -34 297 -1 39 14 80 29 90 35 10 5 38 19 63 31 63 31 233
121 245 130 6 5 37 22 70 40 33 17 78 41 100 54 22 12 81 44 130 71 50 26 120
65 157 86 36 22 69 39 71 39 3 0 49 25 102 55 54 30 99 55 101 55 19 0 1074
618 1359 795 39 24 97 60 130 80 33 20 92 56 130 80 39 24 97 60 130 80 33 20
90 55 128 78 37 23 118 73 180 111 150 92 123 74 617 401 239 159 464 306 500
328 188 115 558 373 590 411 10 13 10 16 -4 16 -12 0 -16 9 -16 36 0 31 3 35
20 29 11 -3 20 -4 20 -2 0 5 -108 77 -210 142 -19 12 -60 38 -90 57 -102 64
-210 133 -273 172 -168 106 -199 126 -362 231 -66 43 -145 94 -175 113 -30 19
-75 48 -99 64 -61 41 -137 78 -159 78 -10 0 -58 -28 -108 -61 -153 -106 -736
-494 -802 -535 -34 -21 -92 -57 -127 -79 -36 -22 -134 -83 -217 -136 -84 -53
-193 -120 -243 -149 -49 -29 -173 -104 -275 -165 -168 -103 -318 -190 -808
-471 -90 -52 -165 -94 -168 -94 -4 0 -226 -123 -254 -140 -8 -6 -24 -14 -35
-19 -11 -5 -45 -23 -75 -41 -30 -18 -125 -68 -210 -112 -345 -177 -386 -178
-690 -24 -246 124 -443 226 -455 236 -5 4 -48 27 -95 51 -105 53 -303 162
-475 261 -71 42 -179 104 -240 138 -336 193 -884 521 -1060 635 -71 46 -244
155 -419 264 -32 20 -119 77 -193 126 -160 107 -199 132 -385 249 -316 199
-368 249 -397 384 -12 59 -37 265 -45 387 -3 44 -13 168 -21 275 -41 542 -49
824 -50 1750 0 717 4 983 18 1280 21 449 53 910 68 965 14 52 51 124 84 163
20 24 495 351 541 372 6 3 116 75 245 161 220 146 368 243 449 294 40 25 81
51 201 128 47 30 184 113 305 184 120 72 314 188 429 258 116 70 235 142 265
158 30 17 66 38 80 47 14 10 97 59 185 110 213 124 212 123 355 200 69 37 149
82 178 99 52 30 101 57 247 136 39 21 75 41 80 45 34 27 261 132 305 141 70
15 155 5 230 -26 153 -64 677 -334 953 -491 71 -41 132 -74 135 -74 2 0 79
-44 171 -99 91 -54 189 -111 218 -127 242 -136 340 -194 726 -434 119 -74 250
-155 289 -178 194 -116 591 -371 668 -430 14 -10 75 -52 135 -94 61 -41 153
-104 206 -141 62 -43 107 -67 124 -67 34 0 162 74 426 246 68 45 157 102 197
128 39 25 105 67 145 93 39 27 80 52 90 58 92 52 365 224 390 245 4 4 -7 5
-24 2 -30 -4 -32 -3 -25 19 4 13 8 32 7 43 0 14 6 17 27 13 26 -5 26 -4 -9 23
-77 63 -331 236 -490 336 -128 80 -278 177 -674 439 -126 83 -252 166 -280
183 -27 18 -81 52 -120 77 -38 24 -97 61 -130 80 -33 20 -78 47 -100 61 -22
13 -47 27 -55 31 -12 6 -160 95 -220 133 -8 5 -55 33 -105 61 -49 29 -214 127
-365 217 -151 91 -358 212 -460 270 -102 58 -201 115 -220 127 -19 12 -134 75
-255 140 -121 65 -242 130 -270 145 -82 44 -250 132 -420 220 -88 46 -212 110
-275 144 -122 65 -156 81 -232 115 -27 12 -67 30 -90 40 -24 11 -65 29 -93 41
-54 25 -194 36 -250 21z m-3235 -3481 c0 -5 -5 -10 -11 -10 -5 0 -7 5 -4 10 3
6 8 10 11 10 2 0 4 -4 4 -10z m7158 -237 c-4 -22 -53 -30 -74 -12 -25 20 -15
29 32 29 38 0 45 -3 42 -17z m-68 -5373 c0 -5 -7 -10 -15 -10 -8 0 -15 5 -15
10 0 6 7 10 15 10 8 0 15 -4 15 -10z m-403 -2036 c-3 -3 -12 -4 -19 -1 -8 3
-5 6 6 6 11 1 17 -2 13 -5z" fill="#FFFFFF"/></g><g transform="translate(0.000000,1968.000000) scale(0.100000,-0.100000)"><path d="M8454 12262 c-17 -15 -60 -45 -95 -66 -35 -22 -100 -63 -144 -91
-135 -86 -203 -128 -400 -249 -537 -330 -601 -382 -624 -512 -18 -97 -29 -368
-42 -1008 -16 -777 -2 -1370 45 -1896 16 -183 32 -220 125 -294 109 -87 670
-455 956 -628 94 -56 285 -172 425 -258 140 -86 284 -173 320 -193 36 -21 83
-48 105 -61 164 -97 244 -141 415 -227 251 -127 247 -125 314 -140 64 -14 126
-4 206 33 72 33 277 136 359 180 77 42 521 306 624 372 31 20 177 109 324 197
224 135 737 469 928 605 168 120 256 190 279 222 37 55 54 211 71 682 26 694
21 1470 -15 2185 -12 236 -22 290 -59 342 -56 78 -111 117 -456 328 -448 275
-608 375 -771 479 -31 20 -49 25 -56 18 -7 -7 -6 -173 1 -529 13 -609 14
-1744 2 -2264 -10 -405 -9 -399 -79 -466 -71 -67 -549 -369 -892 -563 -69 -39
-132 -75 -140 -80 -47 -30 -221 -108 -253 -114 -20 -4 -54 -2 -74 3 -21 6
-146 72 -278 147 -132 75 -258 145 -280 156 -47 24 -287 172 -505 311 -169
108 -220 151 -253 212 l-22 40 -1 1575 c-1 1729 4 1609 -60 1552z" fill="#FFFFFF"/></g></g></g>
<g transform="translate(58.490,1151.273) scale(0.551538)"><g id="text" transform="translate(0.000000,558.000000) scale(0.100000,-0.100000)"><path d="M2020 3993 c-404 -29 -702 -138 -985 -357 -89 -70 -226 -206 -278
-278 -25 -34 -56 -75 -67 -91 -31 -39 -146 -276 -155 -316 -4 -18 -15 -52 -26
-75 -10 -24 -24 -67 -30 -97 -6 -30 -20 -83 -30 -119 -26 -85 -59 -376 -59
-515 0 -161 35 -483 63 -584 14 -47 29 -104 35 -126 17 -65 67 -197 90 -240
12 -22 22 -43 22 -46 0 -8 55 -98 99 -164 86 -127 269 -312 382 -386 20 -13
63 -42 95 -64 104 -70 276 -148 383 -171 35 -8 94 -23 130 -34 71 -21 192 -35
391 -46 158 -8 447 16 541 46 37 11 91 24 120 30 57 10 118 35 264 107 85 42
109 56 215 127 76 50 232 216 302 321 104 157 159 282 207 475 40 160 48 228
28 255 -14 19 -30 20 -219 25 -112 3 -218 1 -236 -3 -39 -10 -54 -38 -75 -147
-50 -247 -179 -464 -353 -588 -51 -37 -173 -102 -191 -102 -8 0 -32 -9 -53
-20 -22 -11 -97 -32 -167 -47 -111 -24 -151 -27 -303 -27 -152 0 -192 3 -300
26 -161 34 -283 87 -430 184 -72 48 -211 185 -257 254 -39 59 -93 150 -93 157
0 3 -11 27 -24 53 -39 78 -93 274 -118 425 -32 202 -32 478 0 660 29 161 75
298 147 438 79 154 146 244 257 344 118 106 238 170 408 221 257 76 597 74
835 -4 55 -18 130 -47 166 -66 119 -60 241 -170 324 -293 34 -49 91 -175 114
-250 27 -88 48 -116 87 -118 16 0 113 0 215 1 214 2 224 6 222 71 -4 95 -101
393 -153 471 -9 14 -33 50 -54 81 -138 211 -444 434 -706 517 -228 72 -520
104 -780 85z M23545 3994 c-16 -2 -73 -9 -125 -14 -365 -41 -631 -151 -826
-345 -207 -205 -295 -459 -272 -782 20 -281 171 -510 423 -641 66 -34 237
-102 257 -102 7 0 47 -11 88 -24 116 -37 320 -81 610 -130 685 -117 835 -169
974 -335 150 -179 132 -486 -37 -652 -54 -53 -161 -120 -222 -139 -22 -7 -49
-19 -60 -26 -11 -7 -49 -18 -85 -24 -36 -6 -105 -20 -155 -32 -77 -18 -121
-22 -305 -22 -206 -1 -222 0 -380 33 -91 18 -178 40 -194 48 -16 8 -50 21 -77
29 -26 8 -51 19 -54 24 -4 6 -25 20 -48 31 -62 31 -162 123 -206 188 -73 108
-116 228 -131 366 -7 56 -13 74 -33 91 -23 19 -37 21 -224 23 -192 2 -201 1
-228 -20 -27 -22 -28 -24 -21 -97 20 -246 98 -480 209 -631 163 -223 408 -379
716 -458 53 -14 112 -29 131 -34 47 -12 421 -39 545 -39 256 0 614 53 760 112
28 11 66 24 85 30 19 6 46 18 60 27 14 9 38 23 55 30 62 27 215 143 279 213
125 134 195 288 221 484 19 146 19 274 0 393 -28 169 -87 282 -215 412 -53 53
-115 103 -164 132 -43 26 -80 47 -83 47 -2 0 -30 12 -61 27 -72 34 -167 69
-257 94 -38 11 -90 26 -115 34 -25 8 -90 21 -145 30 -55 8 -123 22 -151 30
-28 8 -99 21 -158 30 -60 8 -125 19 -145 25 -21 5 -96 19 -167 29 -71 11 -148
27 -172 35 -23 8 -70 20 -103 26 -34 6 -85 22 -114 36 -30 13 -59 24 -65 24
-24 0 -159 82 -213 131 -181 161 -175 443 13 628 33 32 84 73 115 90 145 82
363 130 620 138 129 4 170 1 295 -21 80 -14 172 -37 205 -50 33 -14 66 -26 73
-26 21 0 130 -69 190 -118 104 -87 181 -216 207 -347 23 -118 16 -115 260
-115 255 0 243 -8 225 151 -31 285 -183 538 -417 697 -259 176 -533 249 -958
257 -110 2 -213 1 -230 -1z M4360 3907 l-25 -13 -5 -1134 c-3 -624 -2 -1198 2
-1275 5 -114 13 -164 41 -270 49 -183 83 -259 179 -402 75 -113 260 -273 388
-337 25 -12 54 -27 65 -34 45 -26 161 -65 290 -97 166 -42 309 -55 605 -55
238 0 405 13 490 37 30 8 89 24 130 33 71 17 181 57 225 82 11 7 34 18 50 26
51 25 137 84 208 144 216 183 337 413 386 733 19 124 20 182 21 1320 0 655 1
1196 0 1203 0 6 -9 21 -20 32 -19 19 -33 20 -244 20 -170 0 -226 -3 -234 -13
-8 -9 -13 -381 -16 -1207 -3 -708 -9 -1215 -15 -1245 -37 -193 -72 -281 -158
-403 -63 -88 -205 -200 -278 -218 -17 -4 -48 -16 -69 -27 -22 -10 -105 -31
-185 -45 -206 -35 -419 -35 -616 1 -131 25 -229 55 -300 94 -16 9 -43 23 -60
31 -174 90 -328 330 -357 554 -6 52 -11 522 -13 1263 -4 1175 -4 1180 -24
1196 -18 15 -51 17 -228 18 -150 1 -215 -3 -233 -12z M8222 3902 c-20 -20 -20
-44 -20 -1754 0 -1471 2 -1736 14 -1755 14 -23 17 -23 228 -23 189 0 216 2
235 18 l22 17 0 721 c-1 701 0 722 19 739 18 16 62 17 717 12 592 -5 710 -8
777 -22 209 -43 322 -130 407 -310 38 -83 53 -150 64 -305 4 -47 15 -180 26
-297 34 -376 70 -527 130 -559 40 -20 486 -21 514 0 18 13 17 17 -18 107 -33
84 -85 273 -100 369 -4 19 -11 91 -17 160 -6 69 -22 217 -36 330 -38 304 -87
432 -211 556 -60 61 -105 87 -213 123 -58 20 -75 30 -75 45 0 22 6 26 109 66
114 44 190 94 282 185 138 136 198 278 216 514 19 249 -18 455 -108 602 -52
83 -152 190 -227 239 -144 97 -364 177 -582 211 -137 22 -163 23 -1137 26
-980 4 -997 4 -1016 -15z m1978 -432 c139 -12 256 -48 346 -108 101 -67 157
-143 201 -269 23 -68 27 -95 27 -203 1 -116 -1 -131 -28 -198 -37 -90 -104
-175 -183 -229 -58 -39 -152 -84 -218 -103 -75 -22 -268 -30 -906 -36 l-687
-7 -27 27 -27 27 5 540 c3 396 8 544 16 552 22 22 1224 28 1481 7z M13171
3889 c-17 -17 -31 -35 -31 -41 0 -6 -40 -95 -89 -197 -49 -102 -92 -197 -96
-211 -4 -14 -19 -49 -32 -79 -14 -30 -31 -70 -38 -90 -8 -20 -30 -74 -50 -121
-20 -47 -43 -103 -51 -125 -8 -22 -25 -62 -38 -90 -41 -86 -73 -157 -115 -255
-23 -52 -52 -117 -66 -145 -13 -27 -40 -88 -60 -135 -20 -47 -44 -103 -55
-125 -11 -22 -27 -60 -35 -85 -9 -24 -22 -54 -29 -65 -14 -21 -53 -111 -91
-210 -12 -33 -32 -85 -44 -115 -12 -30 -32 -77 -45 -105 -42 -87 -98 -208
-121 -260 -13 -27 -37 -79 -54 -115 -17 -36 -31 -69 -31 -74 0 -5 -14 -39 -31
-75 -64 -133 -88 -187 -94 -210 -4 -14 -18 -45 -31 -69 -13 -25 -24 -52 -24
-61 0 -9 -10 -32 -21 -51 -12 -19 -28 -53 -36 -75 -15 -43 -46 -112 -99 -216
-41 -81 -43 -106 -8 -119 27 -11 444 -14 482 -4 23 7 70 84 100 164 7 19 24
57 37 84 14 28 25 57 25 65 0 9 8 30 18 46 11 17 27 55 37 85 10 30 24 64 31
76 8 11 22 45 33 75 10 29 35 92 56 139 20 47 47 112 59 144 11 33 35 74 51
92 l30 31 840 2 c462 0 845 -2 851 -7 15 -10 78 -129 94 -178 7 -21 21 -50 30
-64 9 -14 23 -43 30 -65 7 -22 23 -58 36 -81 13 -22 24 -48 24 -56 0 -8 11
-35 23 -59 13 -24 30 -62 37 -84 7 -22 19 -49 26 -60 7 -11 20 -41 29 -65 8
-25 24 -63 35 -85 10 -22 30 -65 44 -95 14 -30 34 -66 45 -79 l18 -24 249 2
c157 1 253 6 261 13 19 15 16 36 -13 98 -14 30 -49 109 -76 175 -91 218 -106
252 -117 271 -14 26 -91 200 -91 208 0 3 -25 59 -56 123 -31 65 -67 143 -81
173 -13 30 -39 87 -58 125 -42 89 -72 157 -124 275 -23 52 -53 118 -65 145
-13 28 -29 67 -36 87 -6 21 -15 40 -20 43 -5 3 -14 22 -20 43 -12 36 -22 60
-93 212 -19 41 -38 86 -42 100 -4 14 -15 36 -25 50 -10 14 -21 36 -25 50 -4
14 -23 59 -43 100 -19 41 -45 98 -57 125 -13 28 -37 80 -54 116 -17 36 -31 70
-31 75 0 5 -11 31 -24 59 -14 27 -41 88 -61 135 -20 47 -47 108 -60 135 -13
28 -78 169 -144 314 -67 146 -129 273 -138 283 -15 16 -38 18 -274 18 l-257 0
-31 -31z m341 -595 c14 -38 41 -103 58 -144 32 -73 67 -161 115 -285 13 -33
33 -78 44 -100 12 -21 21 -46 21 -55 0 -8 8 -29 19 -46 10 -17 22 -41 26 -55
9 -30 99 -241 157 -366 15 -34 28 -65 28 -68 0 -4 13 -34 29 -68 101 -213 117
-258 99 -290 -10 -20 -21 -20 -645 -14 -475 4 -637 8 -648 17 -8 7 -15 21 -15
31 0 10 34 98 76 196 173 408 376 895 450 1080 35 89 67 176 70 193 8 38 39
61 68 51 14 -6 30 -31 48 -77z M15038 3910 c-10 -6 -18 -17 -18 -25 0 -8 20
-57 45 -109 25 -53 45 -101 45 -108 0 -6 9 -30 20 -52 23 -49 74 -172 100
-241 37 -99 94 -242 175 -435 12 -30 62 -147 110 -260 94 -221 164 -387 252
-600 52 -127 67 -164 141 -350 16 -41 44 -109 62 -150 17 -41 38 -93 46 -115
25 -67 107 -267 150 -360 12 -27 31 -72 42 -100 11 -27 37 -88 57 -135 20 -47
48 -111 61 -144 13 -32 27 -63 32 -70 5 -6 15 -29 22 -51 7 -22 21 -56 31 -75
10 -19 27 -56 37 -82 34 -79 33 -79 323 -76 l253 3 28 40 c15 22 37 63 47 90
29 76 71 175 92 221 10 22 19 44 19 49 0 8 16 45 91 215 48 109 86 203 99 242
6 21 15 40 20 43 5 3 16 29 26 58 9 28 20 57 25 63 9 11 50 106 99 229 39 99
72 176 120 285 23 52 99 239 170 415 156 392 227 561 330 795 23 52 50 115 60
140 10 25 35 83 55 130 37 84 75 177 120 295 13 33 33 78 44 101 28 58 34 89
21 113 -10 20 -17 21 -248 21 -195 0 -241 -3 -259 -15 -13 -9 -32 -47 -48 -97
-24 -73 -91 -242 -240 -608 -103 -254 -220 -541 -245 -605 -15 -38 -44 -108
-65 -155 -20 -47 -45 -108 -55 -136 -10 -28 -23 -59 -29 -70 -6 -10 -22 -48
-35 -84 -13 -36 -37 -99 -54 -140 -17 -41 -40 -100 -51 -130 -12 -30 -27 -66
-35 -80 -7 -14 -21 -50 -31 -80 -10 -30 -21 -60 -26 -65 -4 -6 -19 -41 -33
-78 -14 -37 -37 -96 -51 -132 -14 -36 -34 -83 -45 -105 -11 -21 -20 -45 -20
-51 0 -7 -13 -40 -28 -73 -25 -53 -47 -109 -95 -239 -7 -20 -16 -27 -30 -25
-15 2 -29 24 -53 83 -17 44 -42 105 -54 135 -12 30 -33 82 -45 115 -13 33 -37
96 -55 140 -18 44 -43 107 -55 140 -43 111 -76 190 -91 217 -8 15 -23 51 -33
80 -10 29 -35 91 -56 138 -20 47 -50 117 -65 155 -15 39 -42 104 -60 145 -18
41 -42 102 -55 135 -12 33 -29 76 -37 95 -45 103 -132 328 -190 490 -19 54
-129 328 -268 670 -39 97 -82 186 -96 200 l-24 25 -238 3 c-153 1 -243 -2
-254 -8z M18964 3899 c-18 -20 -19 -73 -20 -1759 -2 -1343 1 -1742 10 -1755 6
-9 25 -17 41 -18 17 0 634 0 1373 1 1327 2 1342 2 1362 22 19 19 20 33 20 205
0 182 0 186 -24 210 l-23 23 -1104 2 c-958 1 -1107 3 -1126 16 l-23 14 0 549
c0 533 1 548 20 566 19 17 72 18 1043 16 l1023 -2 19 21 c17 19 19 38 20 197
0 156 -2 179 -18 200 l-18 23 -1019 0 c-987 0 -1019 1 -1041 19 -24 19 -24 22
-27 248 -2 125 -1 346 3 491 6 210 10 266 22 277 12 13 163 15 1104 15 1088 0
1089 0 1110 21 20 20 20 28 16 201 -4 149 -8 183 -21 197 -15 15 -135 16
-1360 18 l-1343 3 -19 -21z M25540 3913 c-36 -13 -40 -34 -40 -219 0 -178 1
-183 22 -198 20 -14 96 -16 629 -16 567 0 607 -1 622 -18 22 -24 26 -251 26
-1788 1 -1254 1 -1260 21 -1282 20 -21 28 -22 234 -22 194 0 214 2 229 18 16
17 17 138 17 1535 0 1504 0 1517 20 1537 20 20 33 20 635 20 592 0 616 1 634
19 18 18 19 34 17 193 -2 106 -7 181 -14 194 -6 12 -26 24 -43 28 -38 7 -2988
7 -3009 -1z" fill="#FFFFFF"/></g></g>
</svg>
